<svg xmlns="http://www.w3.org/2000/svg" xmlns:xlink="http://www.w3.org/1999/xlink" width="500" zoomAndPan="magnify" viewBox="0 0 375 374.999991" height="500" preserveAspectRatio="xMidYMid meet" version="1.0"><defs><g/><clipPath id="9f0157b077"><path d="M 109 58 L 266 58 L 266 140.121094 L 109 140.121094 Z M 109 58 " clip-rule="nonzero"/></clipPath><clipPath id="3476c8abcb"><path d="M 104.667969 55.039062 L 270.417969 55.039062 L 270.417969 142.039062 L 104.667969 142.039062 Z M 104.667969 55.039062 " clip-rule="nonzero"/></clipPath><clipPath id="98836d53ac"><path d="M 91.492188 134.003906 L 283.507812 134.003906 L 283.507812 326 L 91.492188 326 Z M 91.492188 134.003906 " clip-rule="nonzero"/></clipPath><clipPath id="19e87c83ff"><path d="M 257.535156 134.003906 L 117.464844 134.003906 C 103.234375 134.003906 91.492188 145.746094 91.492188 159.976562 L 91.492188 300.046875 C 91.492188 314.277344 103.234375 326.019531 117.464844 326.019531 L 257.535156 326.019531 C 271.765625 326.019531 283.507812 314.277344 283.507812 300.046875 L 283.507812 159.976562 C 283.507812 145.746094 271.765625 134.003906 257.535156 134.003906 Z M 277.769531 161.925781 L 277.769531 300.046875 C 277.769531 311.101562 268.589844 320.28125 257.535156 320.28125 L 117.464844 320.28125 C 106.410156 320.28125 97.230469 311.101562 97.230469 300.046875 L 97.230469 159.976562 C 97.230469 148.921875 106.410156 139.742188 117.464844 139.742188 L 257.535156 139.742188 C 268.589844 139.742188 277.769531 148.921875 277.769531 159.976562 Z M 277.769531 161.925781 " clip-rule="nonzero"/></clipPath><clipPath id="a629ea96fe"><path d="M 95.402344 138 L 279.597656 138 L 279.597656 322 L 95.402344 322 Z M 95.402344 138 " clip-rule="nonzero"/></clipPath><clipPath id="4ddeb4159a"><path d="M 254.683594 137.914062 L 120.316406 137.914062 C 106.664062 137.914062 95.402344 149.179688 95.402344 162.828125 L 95.402344 297.195312 C 95.402344 310.847656 106.664062 322.109375 120.316406 322.109375 L 254.683594 322.109375 C 268.335938 322.109375 279.597656 310.847656 279.597656 297.195312 L 279.597656 162.828125 C 279.597656 149.179688 268.335938 137.914062 254.683594 137.914062 Z M 274.09375 164.699219 L 274.09375 297.195312 C 274.09375 307.800781 265.289062 316.605469 254.683594 316.605469 L 120.316406 316.605469 C 109.710938 316.605469 100.90625 307.800781 100.90625 297.195312 L 100.90625 162.828125 C 100.90625 152.222656 109.710938 143.417969 120.316406 143.417969 L 254.683594 143.417969 C 265.289062 143.417969 274.09375 152.222656 274.09375 162.828125 Z M 274.09375 164.699219 " clip-rule="nonzero"/></clipPath></defs><g clip-path="url(#9f0157b077)"><path fill="#00bf63" d="M 265.511719 136.015625 C 265.515625 136.421875 265.457031 136.820312 265.339844 137.210938 C 265.222656 137.597656 265.050781 137.960938 264.824219 138.300781 C 264.597656 138.640625 264.328125 138.9375 264.015625 139.195312 C 263.699219 139.453125 263.355469 139.660156 262.980469 139.816406 C 262.605469 139.972656 262.214844 140.070312 261.808594 140.109375 C 261.40625 140.148438 261.003906 140.128906 260.605469 140.050781 C 260.207031 139.96875 259.828125 139.835938 259.46875 139.644531 C 259.109375 139.449219 258.789062 139.210938 258.5 138.921875 L 187.496094 68.066406 L 116.484375 138.921875 C 116.292969 139.117188 116.085938 139.292969 115.863281 139.449219 C 115.636719 139.601562 115.398438 139.734375 115.148438 139.839844 C 114.898438 139.949219 114.640625 140.03125 114.371094 140.085938 C 114.105469 140.140625 113.835938 140.171875 113.5625 140.171875 C 113.289062 140.175781 113.019531 140.148438 112.753906 140.097656 C 112.484375 140.046875 112.226562 139.96875 111.972656 139.863281 C 111.722656 139.761719 111.480469 139.632812 111.253906 139.480469 C 111.027344 139.332031 110.820312 139.160156 110.625 138.964844 C 110.433594 138.773438 110.261719 138.5625 110.113281 138.335938 C 109.960938 138.109375 109.832031 137.867188 109.730469 137.617188 C 109.628906 137.363281 109.550781 137.101562 109.5 136.835938 C 109.449219 136.566406 109.425781 136.296875 109.425781 136.023438 C 109.429688 135.753906 109.460938 135.480469 109.515625 135.214844 C 109.574219 134.949219 109.65625 134.691406 109.761719 134.441406 C 109.871094 134.191406 110.003906 133.953125 110.15625 133.726562 C 110.3125 133.503906 110.488281 133.296875 110.683594 133.109375 L 184.597656 59.359375 C 184.789062 59.171875 184.996094 59 185.21875 58.851562 C 185.441406 58.703125 185.679688 58.578125 185.925781 58.472656 C 186.175781 58.371094 186.433594 58.292969 186.695312 58.242188 C 186.960938 58.1875 187.226562 58.164062 187.496094 58.164062 C 187.765625 58.164062 188.03125 58.1875 188.296875 58.242188 C 188.558594 58.292969 188.816406 58.371094 189.0625 58.472656 C 189.3125 58.578125 189.550781 58.703125 189.773438 58.851562 C 189.996094 59 190.203125 59.171875 190.394531 59.359375 L 264.304688 133.109375 C 265.109375 133.910156 265.511719 134.878906 265.511719 136.015625 Z M 265.511719 136.015625 " fill-opacity="1" fill-rule="nonzero"/></g><g clip-path="url(#3476c8abcb)"><path fill="#00bf63" d="M 187.496094 55.039062 L 270.277344 137.820312 L 265.832031 142.261719 L 187.496094 63.910156 L 109.160156 142.246094 L 104.71875 137.820312 Z M 187.496094 55.039062 " fill-opacity="1" fill-rule="nonzero"/></g><g clip-path="url(#98836d53ac)"><g clip-path="url(#19e87c83ff)"><path fill="#00bf63" d="M 91.875 134.386719 L 283.125 134.386719 L 283.125 325.636719 L 91.875 325.636719 Z M 91.875 134.386719 " fill-opacity="1" fill-rule="nonzero"/></g></g><g clip-path="url(#a629ea96fe)"><g clip-path="url(#4ddeb4159a)"><path fill="#00bf63" d="M 95.769531 138.28125 L 279.230469 138.28125 L 279.230469 321.746094 L 95.769531 321.746094 Z M 95.769531 138.28125 " fill-opacity="1" fill-rule="nonzero"/></g></g><g fill="#00bf63" fill-opacity="1"><g transform="translate(91.874998, 323.249979)"><g><path d="M 88.390625 -153.296875 C 106.984375 -153.296875 121.179688 -149.992188 130.984375 -143.390625 C 140.796875 -136.796875 145.703125 -127.347656 145.703125 -115.046875 C 145.703125 -109.035156 145 -103.890625 143.59375 -99.609375 C 142.195312 -95.335938 140.25 -91.710938 137.75 -88.734375 C 135.257812 -85.765625 132.285156 -83.304688 128.828125 -81.359375 C 125.378906 -79.410156 121.640625 -77.753906 117.609375 -76.390625 C 120.410156 -75.640625 123.226562 -73.625 126.0625 -70.34375 C 128.90625 -67.0625 131.796875 -63.007812 134.734375 -58.1875 C 137.671875 -53.375 140.644531 -48.023438 143.65625 -42.140625 C 146.664062 -36.265625 149.691406 -30.316406 152.734375 -24.296875 C 155.773438 -18.285156 158.847656 -12.441406 161.953125 -6.765625 C 165.066406 -1.085938 168.175781 3.96875 171.28125 8.40625 C 174.394531 12.851562 177.539062 16.410156 180.71875 19.078125 C 183.90625 21.742188 187.066406 23.078125 190.203125 23.078125 C 191.578125 23.078125 192.929688 22.800781 194.265625 22.25 C 195.597656 21.707031 196.640625 21.160156 197.390625 20.609375 L 199.546875 24.609375 C 198.171875 25.359375 196.492188 26.191406 194.515625 27.109375 C 192.535156 28.035156 190.210938 28.910156 187.546875 29.734375 C 184.878906 30.554688 181.882812 31.253906 178.5625 31.828125 C 175.25 32.410156 171.578125 32.703125 167.546875 32.703125 C 160.921875 32.703125 154.941406 30.875 149.609375 27.21875 C 144.273438 23.5625 139.691406 18.421875 135.859375 11.796875 C 131.960938 4.953125 128.132812 -2.222656 124.375 -9.734375 C 120.613281 -17.253906 116.867188 -24.773438 113.140625 -32.296875 C 109.421875 -39.816406 105.695312 -47.164062 101.96875 -54.34375 C 98.25 -61.519531 94.507812 -68.253906 90.75 -74.546875 L 91.5625 -78.75 C 95.601562 -77.726562 99.109375 -77.96875 102.078125 -79.46875 C 105.046875 -80.96875 107.488281 -83.410156 109.40625 -86.796875 C 111.320312 -90.179688 112.738281 -94.332031 113.65625 -99.25 C 114.582031 -104.175781 115.046875 -109.507812 115.046875 -115.25 C 115.046875 -119.351562 114.601562 -123.195312 113.71875 -126.78125 C 112.832031 -130.375 111.582031 -133.519531 109.96875 -136.21875 C 108.363281 -138.925781 106.429688 -141.046875 104.171875 -142.578125 C 101.921875 -144.117188 99.394531 -144.890625 96.59375 -144.890625 C 94.40625 -144.890625 92.609375 -144.5625 91.203125 -143.90625 C 89.804688 -143.257812 88.695312 -142.441406 87.875 -141.453125 C 87.050781 -140.460938 86.484375 -139.398438 86.171875 -138.265625 C 85.867188 -137.140625 85.71875 -136.066406 85.71875 -135.046875 L 85.71875 -13.4375 C 85.71875 -8.164062 84.332031 -4.332031 81.5625 -1.9375 C 78.800781 0.445312 74.582031 1.640625 68.90625 1.640625 C 63.164062 1.640625 58.925781 0.445312 56.1875 -1.9375 C 53.457031 -4.332031 52.09375 -8.164062 52.09375 -13.4375 L 52.09375 -136.0625 C 52.09375 -139.820312 49.492188 -141.703125 44.296875 -141.703125 C 40.535156 -141.703125 36.722656 -141.140625 32.859375 -140.015625 C 29.003906 -138.890625 25.519531 -137.351562 22.40625 -135.40625 C 19.289062 -133.457031 16.742188 -131.128906 14.765625 -128.421875 C 12.785156 -125.722656 11.796875 -122.800781 11.796875 -119.65625 C 11.796875 -117.46875 12.082031 -115.722656 12.65625 -114.421875 C 13.238281 -113.128906 13.90625 -112.15625 14.65625 -111.5 C 15.414062 -110.851562 16.1875 -110.445312 16.96875 -110.28125 C 17.757812 -110.113281 18.320312 -110.03125 18.65625 -110.03125 C 20.363281 -110.03125 21.765625 -110.316406 22.859375 -110.890625 C 23.953125 -111.472656 24.941406 -112.085938 25.828125 -112.734375 C 26.722656 -113.390625 27.5625 -114.003906 28.34375 -114.578125 C 29.132812 -115.160156 30.039062 -115.453125 31.0625 -115.453125 C 31.882812 -115.453125 32.753906 -115.265625 33.671875 -114.890625 C 34.597656 -114.515625 35.453125 -113.914062 36.234375 -113.09375 C 37.023438 -112.28125 37.691406 -111.207031 38.234375 -109.875 C 38.785156 -108.539062 39.0625 -106.914062 39.0625 -105 C 39.0625 -102.269531 38.53125 -99.910156 37.46875 -97.921875 C 36.414062 -95.941406 35.050781 -94.285156 33.375 -92.953125 C 31.695312 -91.617188 29.78125 -90.625 27.625 -89.96875 C 25.476562 -89.320312 23.34375 -89 21.21875 -89 C 17.9375 -89 14.976562 -89.5625 12.34375 -90.6875 C 9.71875 -91.820312 7.484375 -93.378906 5.640625 -95.359375 C 3.796875 -97.335938 2.394531 -99.660156 1.4375 -102.328125 C 0.476562 -104.992188 0 -107.832031 0 -110.84375 C 0 -116.519531 1.054688 -121.523438 3.171875 -125.859375 C 5.296875 -130.203125 8.285156 -133.945312 12.140625 -137.09375 C 16.003906 -140.238281 20.632812 -142.851562 26.03125 -144.9375 C 31.4375 -147.019531 37.421875 -148.675781 43.984375 -149.90625 C 50.546875 -151.144531 57.570312 -152.019531 65.0625 -152.53125 C 72.550781 -153.039062 80.328125 -153.296875 88.390625 -153.296875 Z M 88.390625 -153.296875 "/></g></g></g><g fill="#ffffff" fill-opacity="1"><g transform="translate(195.786686, 255.39091)"><g><path d="M 5.953125 -2.0625 C 6.910156 -2.519531 7.816406 -2.785156 8.671875 -2.859375 C 9.523438 -2.941406 10.304688 -2.867188 11.015625 -2.640625 C 11.722656 -2.410156 12.347656 -2.039062 12.890625 -1.53125 C 13.429688 -1.03125 13.863281 -0.445312 14.1875 0.21875 C 14.507812 0.894531 14.707031 1.59375 14.78125 2.3125 C 14.863281 3.039062 14.785156 3.742188 14.546875 4.421875 C 14.316406 5.109375 13.914062 5.765625 13.34375 6.390625 C 12.769531 7.015625 12.003906 7.5625 11.046875 8.03125 C 10.085938 8.5 9.171875 8.769531 8.296875 8.84375 C 7.421875 8.925781 6.617188 8.859375 5.890625 8.640625 C 5.160156 8.421875 4.507812 8.066406 3.9375 7.578125 C 3.375 7.097656 2.929688 6.519531 2.609375 5.84375 C 2.285156 5.175781 2.097656 4.472656 2.046875 3.734375 C 1.992188 2.992188 2.097656 2.273438 2.359375 1.578125 C 2.617188 0.878906 3.039062 0.21875 3.625 -0.40625 C 4.21875 -1.039062 4.992188 -1.59375 5.953125 -2.0625 Z M 9.34375 4.640625 C 9.925781 4.359375 10.476562 4.066406 11 3.765625 C 11.53125 3.460938 11.976562 3.144531 12.34375 2.8125 C 12.707031 2.488281 12.960938 2.15625 13.109375 1.8125 C 13.265625 1.476562 13.253906 1.128906 13.078125 0.765625 C 12.898438 0.410156 12.625 0.1875 12.25 0.09375 C 11.875 0 11.441406 0 10.953125 0.09375 C 10.460938 0.1875 9.925781 0.347656 9.34375 0.578125 C 8.769531 0.816406 8.191406 1.078125 7.609375 1.359375 C 7.023438 1.640625 6.460938 1.9375 5.921875 2.25 C 5.378906 2.5625 4.914062 2.878906 4.53125 3.203125 C 4.15625 3.535156 3.882812 3.878906 3.71875 4.234375 C 3.550781 4.585938 3.554688 4.941406 3.734375 5.296875 C 3.910156 5.660156 4.191406 5.882812 4.578125 5.96875 C 4.960938 6.050781 5.410156 6.039062 5.921875 5.9375 C 6.429688 5.84375 6.976562 5.671875 7.5625 5.421875 C 8.15625 5.179688 8.75 4.921875 9.34375 4.640625 Z M 9.34375 4.640625 "/></g></g></g><g fill="#ffffff" fill-opacity="1"><g transform="translate(200.768269, 265.61442)"><g/></g></g><g fill="#ffffff" fill-opacity="1"><g transform="translate(202.622049, 269.37609)"><g><path d="M 8.859375 3.328125 C 9.023438 3.234375 9.125 3.097656 9.15625 2.921875 C 9.195312 2.753906 9.171875 2.585938 9.078125 2.421875 C 8.953125 2.160156 8.769531 1.945312 8.53125 1.78125 C 8.300781 1.613281 8.023438 1.5 7.703125 1.4375 C 7.390625 1.382812 7.039062 1.394531 6.65625 1.46875 C 6.28125 1.539062 5.878906 1.691406 5.453125 1.921875 C 5.035156 2.128906 4.703125 2.332031 4.453125 2.53125 C 4.203125 2.738281 4.019531 2.9375 3.90625 3.125 C 3.800781 3.320312 3.753906 3.503906 3.765625 3.671875 C 3.773438 3.835938 3.820312 4 3.90625 4.15625 C 4 4.332031 4.132812 4.476562 4.3125 4.59375 C 4.5 4.71875 4.703125 4.800781 4.921875 4.84375 C 5.140625 4.894531 5.359375 4.90625 5.578125 4.875 C 5.804688 4.851562 6.015625 4.789062 6.203125 4.6875 Z M 12.703125 -0.859375 C 12.566406 -1.109375 12.414062 -1.320312 12.25 -1.5 C 12.082031 -1.675781 11.914062 -1.820312 11.75 -1.9375 C 11.59375 -2.050781 11.4375 -2.117188 11.28125 -2.140625 C 11.132812 -2.171875 11.015625 -2.160156 10.921875 -2.109375 C 10.816406 -2.054688 10.769531 -1.957031 10.78125 -1.8125 C 10.789062 -1.675781 10.796875 -1.523438 10.796875 -1.359375 C 10.804688 -1.203125 10.785156 -1.035156 10.734375 -0.859375 C 10.679688 -0.679688 10.539062 -0.53125 10.3125 -0.40625 C 10.164062 -0.332031 10.007812 -0.296875 9.84375 -0.296875 C 9.6875 -0.296875 9.53125 -0.320312 9.375 -0.375 C 9.226562 -0.425781 9.085938 -0.507812 8.953125 -0.625 C 8.828125 -0.738281 8.726562 -0.867188 8.65625 -1.015625 C 8.4375 -1.421875 8.398438 -1.816406 8.546875 -2.203125 C 8.703125 -2.597656 9.003906 -2.914062 9.453125 -3.15625 C 9.898438 -3.382812 10.335938 -3.460938 10.765625 -3.390625 C 11.203125 -3.328125 11.617188 -3.160156 12.015625 -2.890625 C 12.410156 -2.628906 12.773438 -2.285156 13.109375 -1.859375 C 13.453125 -1.441406 13.75 -1 14 -0.53125 C 14.289062 0.03125 14.503906 0.597656 14.640625 1.171875 C 14.785156 1.753906 14.828125 2.304688 14.765625 2.828125 C 14.703125 3.359375 14.523438 3.847656 14.234375 4.296875 C 13.953125 4.753906 13.519531 5.140625 12.9375 5.453125 L 6.8125 8.625 C 6.75 8.65625 6.675781 8.691406 6.59375 8.734375 C 6.519531 8.773438 6.457031 8.828125 6.40625 8.890625 C 6.351562 8.960938 6.316406 9.035156 6.296875 9.109375 C 6.285156 9.191406 6.304688 9.289062 6.359375 9.40625 C 6.429688 9.53125 6.546875 9.625 6.703125 9.6875 C 6.859375 9.75 7.007812 9.800781 7.15625 9.84375 L 7.078125 10.21875 C 6.867188 10.1875 6.632812 10.140625 6.375 10.078125 C 6.113281 10.023438 5.847656 9.929688 5.578125 9.796875 C 5.304688 9.671875 5.035156 9.488281 4.765625 9.25 C 4.503906 9.019531 4.28125 8.71875 4.09375 8.34375 C 3.851562 7.894531 3.78125 7.421875 3.875 6.921875 C 3.96875 6.429688 4.269531 5.988281 4.78125 5.59375 C 4.34375 5.507812 3.953125 5.394531 3.609375 5.25 C 3.273438 5.113281 2.976562 4.953125 2.71875 4.765625 C 2.457031 4.578125 2.222656 4.363281 2.015625 4.125 C 1.816406 3.894531 1.648438 3.644531 1.515625 3.375 C 1.335938 3.03125 1.21875 2.664062 1.15625 2.28125 C 1.101562 1.90625 1.128906 1.523438 1.234375 1.140625 C 1.335938 0.753906 1.535156 0.390625 1.828125 0.046875 C 2.117188 -0.296875 2.535156 -0.609375 3.078125 -0.890625 C 3.734375 -1.234375 4.335938 -1.382812 4.890625 -1.34375 C 5.441406 -1.300781 5.972656 -1.140625 6.484375 -0.859375 C 6.992188 -0.585938 7.488281 -0.238281 7.96875 0.1875 C 8.445312 0.625 8.945312 1.066406 9.46875 1.515625 C 9.851562 1.847656 10.257812 2.023438 10.6875 2.046875 C 11.113281 2.066406 11.5 1.988281 11.84375 1.8125 C 12.375 1.53125 12.71875 1.148438 12.875 0.671875 C 13.039062 0.191406 12.984375 -0.316406 12.703125 -0.859375 Z M 12.703125 -0.859375 "/></g></g></g><g fill="#ffffff" fill-opacity="1"><g transform="translate(207.704183, 279.149587)"><g/></g></g><g fill="#ffffff" fill-opacity="1"><g transform="translate(209.636471, 282.940822)"><g><path d="M 6.78125 9.890625 C 6.6875 9.941406 6.566406 9.988281 6.421875 10.03125 C 6.273438 10.082031 6.113281 10.082031 5.9375 10.03125 C 5.757812 9.988281 5.566406 9.878906 5.359375 9.703125 C 5.160156 9.523438 4.957031 9.253906 4.75 8.890625 C 4.539062 8.503906 4.414062 8.175781 4.375 7.90625 C 4.34375 7.644531 4.359375 7.421875 4.421875 7.234375 C 4.492188 7.054688 4.582031 6.921875 4.6875 6.828125 C 4.800781 6.734375 4.894531 6.664062 4.96875 6.625 L 12.5 2.390625 C 12.601562 2.335938 12.695312 2.269531 12.78125 2.1875 C 12.863281 2.101562 12.929688 2.003906 12.984375 1.890625 C 13.035156 1.785156 13.066406 1.675781 13.078125 1.5625 C 13.085938 1.457031 13.054688 1.34375 12.984375 1.21875 C 12.878906 1.03125 12.71875 0.875 12.5 0.75 C 12.289062 0.625 12.066406 0.519531 11.828125 0.4375 C 11.597656 0.363281 11.378906 0.304688 11.171875 0.265625 C 10.960938 0.234375 10.8125 0.21875 10.71875 0.21875 L 3.59375 4.203125 C 3.5 4.253906 3.378906 4.300781 3.234375 4.34375 C 3.085938 4.382812 2.925781 4.382812 2.75 4.34375 C 2.570312 4.300781 2.382812 4.191406 2.1875 4.015625 C 1.988281 3.847656 1.78125 3.570312 1.5625 3.1875 C 1.351562 2.8125 1.226562 2.488281 1.1875 2.21875 C 1.15625 1.957031 1.171875 1.734375 1.234375 1.546875 C 1.296875 1.367188 1.378906 1.226562 1.484375 1.125 C 1.597656 1.03125 1.691406 0.960938 1.765625 0.921875 L 9.984375 -3.6875 C 10.191406 -3.800781 10.347656 -3.945312 10.453125 -4.125 C 10.554688 -4.3125 10.546875 -4.519531 10.421875 -4.75 C 10.347656 -4.863281 10.265625 -4.953125 10.171875 -5.015625 C 10.078125 -5.078125 9.96875 -5.132812 9.84375 -5.1875 L 9.984375 -5.546875 C 10.210938 -5.472656 10.445312 -5.367188 10.6875 -5.234375 C 10.925781 -5.109375 11.160156 -4.957031 11.390625 -4.78125 C 11.628906 -4.601562 11.851562 -4.394531 12.0625 -4.15625 C 12.28125 -3.925781 12.472656 -3.664062 12.640625 -3.375 C 12.898438 -2.90625 13.023438 -2.5 13.015625 -2.15625 C 13.003906 -1.8125 12.925781 -1.519531 12.78125 -1.28125 C 12.632812 -1.050781 12.453125 -0.851562 12.234375 -0.6875 C 12.023438 -0.53125 11.84375 -0.410156 11.6875 -0.328125 C 12.25 -0.203125 12.785156 -0.03125 13.296875 0.1875 C 13.515625 0.257812 13.734375 0.351562 13.953125 0.46875 C 14.179688 0.59375 14.394531 0.726562 14.59375 0.875 C 14.800781 1.03125 14.992188 1.195312 15.171875 1.375 C 15.347656 1.550781 15.492188 1.742188 15.609375 1.953125 C 15.847656 2.367188 15.972656 2.765625 15.984375 3.140625 C 16.003906 3.523438 15.957031 3.863281 15.84375 4.15625 C 15.738281 4.445312 15.59375 4.695312 15.40625 4.90625 C 15.21875 5.113281 15.039062 5.265625 14.875 5.359375 C 15.4375 5.492188 15.976562 5.664062 16.5 5.875 C 16.707031 5.957031 16.921875 6.054688 17.140625 6.171875 C 17.367188 6.296875 17.585938 6.429688 17.796875 6.578125 C 18.003906 6.722656 18.191406 6.878906 18.359375 7.046875 C 18.535156 7.222656 18.6875 7.421875 18.8125 7.640625 C 19.039062 8.054688 19.160156 8.453125 19.171875 8.828125 C 19.179688 9.203125 19.113281 9.546875 18.96875 9.859375 C 18.820312 10.171875 18.613281 10.457031 18.34375 10.71875 C 18.070312 10.976562 17.785156 11.195312 17.484375 11.375 L 10.890625 15.078125 C 10.828125 15.109375 10.757812 15.148438 10.6875 15.203125 C 10.625 15.253906 10.5625 15.3125 10.5 15.375 C 10.445312 15.4375 10.414062 15.507812 10.40625 15.59375 C 10.394531 15.675781 10.421875 15.769531 10.484375 15.875 C 10.554688 16.007812 10.664062 16.101562 10.8125 16.15625 C 10.96875 16.207031 11.128906 16.253906 11.296875 16.296875 L 11.203125 16.65625 C 11.003906 16.644531 10.765625 16.609375 10.484375 16.546875 C 10.210938 16.484375 9.929688 16.382812 9.640625 16.25 C 9.347656 16.125 9.066406 15.941406 8.796875 15.703125 C 8.523438 15.472656 8.285156 15.175781 8.078125 14.8125 C 7.898438 14.5 7.785156 14.207031 7.734375 13.9375 C 7.691406 13.664062 7.691406 13.40625 7.734375 13.15625 C 7.785156 12.914062 7.882812 12.703125 8.03125 12.515625 C 8.175781 12.335938 8.359375 12.191406 8.578125 12.078125 L 15.6875 8.078125 C 15.789062 8.023438 15.882812 7.953125 15.96875 7.859375 C 16.050781 7.773438 16.117188 7.679688 16.171875 7.578125 C 16.234375 7.484375 16.265625 7.375 16.265625 7.25 C 16.273438 7.132812 16.25 7.023438 16.1875 6.921875 C 16.070312 6.734375 15.90625 6.570312 15.6875 6.4375 C 15.476562 6.3125 15.253906 6.207031 15.015625 6.125 C 14.785156 6.039062 14.566406 5.984375 14.359375 5.953125 C 14.160156 5.929688 14.007812 5.914062 13.90625 5.90625 Z M 6.78125 9.890625 "/></g></g></g><g fill="#ffffff" fill-opacity="1"><g transform="translate(218.868305, 299.291831)"><g/></g></g><g fill="#ffffff" fill-opacity="1"><g transform="translate(220.952486, 302.987748)"><g><path d="M 10.421875 7.15625 L 8.015625 3.21875 C 6.921875 3.488281 5.929688 3.660156 5.046875 3.734375 C 4.160156 3.804688 3.367188 3.769531 2.671875 3.625 C 1.984375 3.488281 1.382812 3.242188 0.875 2.890625 C 0.363281 2.535156 -0.078125 2.054688 -0.453125 1.453125 C -0.648438 1.117188 -0.8125 0.773438 -0.9375 0.421875 C -1.070312 0.078125 -1.160156 -0.238281 -1.203125 -0.53125 C -1.253906 -0.832031 -1.25 -1.09375 -1.1875 -1.3125 C -1.132812 -1.539062 -1.023438 -1.707031 -0.859375 -1.8125 C -0.734375 -1.894531 -0.59375 -1.957031 -0.4375 -2 C -0.289062 -2.039062 -0.144531 -2.054688 0 -2.046875 C 0.15625 -2.046875 0.296875 -2.015625 0.421875 -1.953125 C 0.554688 -1.890625 0.660156 -1.796875 0.734375 -1.671875 C 0.796875 -1.566406 0.773438 -1.425781 0.671875 -1.25 C 0.578125 -1.070312 0.472656 -0.859375 0.359375 -0.609375 C 0.253906 -0.367188 0.1875 -0.109375 0.15625 0.171875 C 0.132812 0.460938 0.234375 0.789062 0.453125 1.15625 C 0.671875 1.519531 0.960938 1.8125 1.328125 2.03125 C 1.703125 2.25 2.171875 2.394531 2.734375 2.46875 C 3.296875 2.539062 3.945312 2.539062 4.6875 2.46875 C 5.4375 2.40625 6.300781 2.25 7.28125 2 L 5.78125 -0.453125 L 6.6875 -1.015625 L 8.359375 1.71875 C 9.273438 1.46875 10.191406 1.210938 11.109375 0.953125 C 12.035156 0.691406 12.921875 0.429688 13.765625 0.171875 C 14.609375 -0.078125 15.394531 -0.316406 16.125 -0.546875 C 16.851562 -0.785156 17.492188 -0.992188 18.046875 -1.171875 C 18.335938 -1.554688 18.476562 -1.910156 18.46875 -2.234375 C 18.457031 -2.554688 18.332031 -2.914062 18.09375 -3.3125 C 17.851562 -3.695312 17.554688 -4.050781 17.203125 -4.375 C 16.847656 -4.695312 16.460938 -4.957031 16.046875 -5.15625 C 15.628906 -5.351562 15.203125 -5.460938 14.765625 -5.484375 C 14.335938 -5.503906 13.929688 -5.398438 13.546875 -5.171875 C 13.328125 -5.035156 13.164062 -4.894531 13.0625 -4.75 C 12.957031 -4.613281 12.894531 -4.484375 12.875 -4.359375 C 12.863281 -4.242188 12.875 -4.140625 12.90625 -4.046875 C 12.9375 -3.960938 12.960938 -3.898438 12.984375 -3.859375 C 13.085938 -3.691406 13.203125 -3.566406 13.328125 -3.484375 C 13.460938 -3.410156 13.585938 -3.347656 13.703125 -3.296875 C 13.828125 -3.253906 13.941406 -3.210938 14.046875 -3.171875 C 14.160156 -3.128906 14.25 -3.054688 14.3125 -2.953125 C 14.363281 -2.867188 14.394531 -2.765625 14.40625 -2.640625 C 14.425781 -2.523438 14.414062 -2.398438 14.375 -2.265625 C 14.34375 -2.140625 14.273438 -2.007812 14.171875 -1.875 C 14.078125 -1.738281 13.929688 -1.609375 13.734375 -1.484375 C 13.460938 -1.316406 13.191406 -1.222656 12.921875 -1.203125 C 12.648438 -1.191406 12.394531 -1.226562 12.15625 -1.3125 C 11.914062 -1.40625 11.695312 -1.539062 11.5 -1.71875 C 11.300781 -1.894531 11.132812 -2.09375 11 -2.3125 C 10.789062 -2.644531 10.664062 -2.976562 10.625 -3.3125 C 10.582031 -3.65625 10.609375 -3.984375 10.703125 -4.296875 C 10.804688 -4.609375 10.96875 -4.898438 11.1875 -5.171875 C 11.40625 -5.441406 11.664062 -5.671875 11.96875 -5.859375 C 12.4375 -6.140625 12.90625 -6.320312 13.375 -6.40625 C 13.851562 -6.488281 14.332031 -6.488281 14.8125 -6.40625 C 15.289062 -6.332031 15.765625 -6.1875 16.234375 -5.96875 C 16.710938 -5.75 17.160156 -5.472656 17.578125 -5.140625 C 17.992188 -4.804688 18.382812 -4.429688 18.75 -4.015625 C 19.113281 -3.597656 19.441406 -3.15625 19.734375 -2.6875 C 20.140625 -2.019531 20.429688 -1.421875 20.609375 -0.890625 C 20.785156 -0.367188 20.863281 0.109375 20.84375 0.546875 C 20.820312 0.984375 20.707031 1.394531 20.5 1.78125 C 20.289062 2.175781 20.019531 2.566406 19.6875 2.953125 L 13.34375 9.890625 L 14.734375 12.140625 L 13.828125 12.703125 L 12.59375 10.703125 L 10.359375 13.1875 C 10.265625 13.28125 10.179688 13.363281 10.109375 13.4375 C 10.035156 13.519531 9.976562 13.601562 9.9375 13.6875 C 9.90625 13.769531 9.882812 13.851562 9.875 13.9375 C 9.863281 14.019531 9.890625 14.101562 9.953125 14.1875 C 10.066406 14.382812 10.207031 14.546875 10.375 14.671875 C 10.539062 14.796875 10.695312 14.90625 10.84375 15 L 10.578125 15.40625 C 10.398438 15.34375 10.195312 15.25 9.96875 15.125 C 9.738281 15 9.492188 14.84375 9.234375 14.65625 C 8.984375 14.46875 8.726562 14.25 8.46875 14 C 8.21875 13.75 7.988281 13.457031 7.78125 13.125 C 7.5 12.644531 7.328125 12.222656 7.265625 11.859375 C 7.210938 11.503906 7.21875 11.1875 7.28125 10.90625 C 7.351562 10.632812 7.46875 10.40625 7.625 10.21875 C 7.78125 10.03125 7.910156 9.867188 8.015625 9.734375 Z M 16.21875 0.8125 C 14.875 1.25 13.613281 1.640625 12.4375 1.984375 C 11.257812 2.335938 10.144531 2.65625 9.09375 2.9375 L 11.171875 6.328125 Z M 16.21875 0.8125 "/></g></g></g><g fill="#ffffff" fill-opacity="1"><g transform="translate(232.225423, 321.248602)"><g><path d="M 6.96875 -3.359375 C 7.664062 -3.816406 8.351562 -4.097656 9.03125 -4.203125 C 9.71875 -4.304688 10.367188 -4.269531 10.984375 -4.09375 C 11.597656 -3.914062 12.164062 -3.613281 12.6875 -3.1875 C 13.21875 -2.757812 13.675781 -2.25 14.0625 -1.65625 C 14.445312 -1.0625 14.734375 -0.445312 14.921875 0.1875 C 15.117188 0.820312 15.1875 1.441406 15.125 2.046875 C 15.414062 2.054688 15.691406 2.03125 15.953125 1.96875 C 16.222656 1.90625 16.46875 1.800781 16.6875 1.65625 C 16.976562 1.46875 17.15625 1.242188 17.21875 0.984375 C 17.289062 0.722656 17.25 0.476562 17.09375 0.25 L 17.40625 0.046875 C 17.539062 0.160156 17.664062 0.257812 17.78125 0.34375 C 17.894531 0.4375 17.992188 0.523438 18.078125 0.609375 C 18.160156 0.691406 18.238281 0.773438 18.3125 0.859375 C 18.382812 0.953125 18.457031 1.054688 18.53125 1.171875 C 18.738281 1.492188 18.800781 1.804688 18.71875 2.109375 C 18.632812 2.410156 18.421875 2.671875 18.078125 2.890625 C 17.867188 3.023438 17.632812 3.109375 17.375 3.140625 C 17.113281 3.179688 16.84375 3.191406 16.5625 3.171875 C 16.28125 3.148438 16 3.101562 15.71875 3.03125 C 15.445312 2.96875 15.195312 2.898438 14.96875 2.828125 C 14.832031 3.316406 14.59375 3.78125 14.25 4.21875 C 13.914062 4.664062 13.472656 5.070312 12.921875 5.4375 C 12.210938 5.90625 11.507812 6.191406 10.8125 6.296875 C 10.125 6.410156 9.460938 6.378906 8.828125 6.203125 C 8.203125 6.035156 7.617188 5.75 7.078125 5.34375 C 6.535156 4.9375 6.070312 4.4375 5.6875 3.84375 C 5.457031 3.488281 5.265625 3.125 5.109375 2.75 C 4.953125 2.375 4.835938 2.003906 4.765625 1.640625 C 4.609375 1.578125 4.441406 1.546875 4.265625 1.546875 C 4.085938 1.554688 3.925781 1.609375 3.78125 1.703125 C 3.519531 1.867188 3.398438 2.097656 3.421875 2.390625 C 3.441406 2.691406 3.546875 3.039062 3.734375 3.4375 C 3.921875 3.84375 4.15625 4.273438 4.4375 4.734375 C 4.726562 5.203125 5.015625 5.679688 5.296875 6.171875 C 5.585938 6.671875 5.835938 7.175781 6.046875 7.6875 C 6.253906 8.207031 6.375 8.710938 6.40625 9.203125 C 6.445312 9.691406 6.375 10.15625 6.1875 10.59375 C 6.007812 11.03125 5.65625 11.421875 5.125 11.765625 C 4.726562 12.023438 4.320312 12.175781 3.90625 12.21875 C 3.488281 12.257812 3.070312 12.21875 2.65625 12.09375 C 2.25 11.96875 1.84375 11.773438 1.4375 11.515625 C 1.03125 11.265625 0.640625 10.96875 0.265625 10.625 C -0.0976562 10.289062 -0.441406 9.929688 -0.765625 9.546875 C -1.085938 9.160156 -1.375 8.773438 -1.625 8.390625 C -2.070312 7.703125 -2.445312 7.054688 -2.75 6.453125 C -3.050781 5.859375 -3.25 5.3125 -3.34375 4.8125 C -3.445312 4.320312 -3.453125 3.894531 -3.359375 3.53125 C -3.265625 3.175781 -3.046875 2.882812 -2.703125 2.65625 C -2.460938 2.507812 -2.207031 2.421875 -1.9375 2.390625 C -1.664062 2.367188 -1.382812 2.394531 -1.09375 2.46875 C -0.8125 2.539062 -0.53125 2.644531 -0.25 2.78125 C 0.03125 2.925781 0.300781 3.078125 0.5625 3.234375 C 0.488281 2.785156 0.519531 2.351562 0.65625 1.9375 C 0.789062 1.519531 1.097656 1.15625 1.578125 0.84375 C 1.828125 0.675781 2.085938 0.566406 2.359375 0.515625 C 2.628906 0.460938 2.898438 0.445312 3.171875 0.46875 C 3.453125 0.5 3.71875 0.546875 3.96875 0.609375 C 4.226562 0.679688 4.460938 0.757812 4.671875 0.84375 C 4.640625 0.46875 4.660156 0.0859375 4.734375 -0.296875 C 4.816406 -0.691406 4.953125 -1.066406 5.140625 -1.421875 C 5.335938 -1.785156 5.582031 -2.128906 5.875 -2.453125 C 6.175781 -2.785156 6.539062 -3.085938 6.96875 -3.359375 Z M 10.875 2.390625 C 11.269531 2.128906 11.640625 1.859375 11.984375 1.578125 C 12.335938 1.296875 12.625 1.003906 12.84375 0.703125 C 13.070312 0.410156 13.21875 0.117188 13.28125 -0.171875 C 13.351562 -0.472656 13.296875 -0.757812 13.109375 -1.03125 C 12.929688 -1.3125 12.6875 -1.476562 12.375 -1.53125 C 12.070312 -1.582031 11.734375 -1.5625 11.359375 -1.46875 C 10.992188 -1.375 10.601562 -1.21875 10.1875 -1 C 9.78125 -0.789062 9.378906 -0.554688 8.984375 -0.296875 C 8.578125 -0.0351562 8.191406 0.238281 7.828125 0.53125 C 7.472656 0.832031 7.175781 1.132812 6.9375 1.4375 C 6.695312 1.738281 6.539062 2.039062 6.46875 2.34375 C 6.40625 2.644531 6.460938 2.9375 6.640625 3.21875 C 6.828125 3.488281 7.078125 3.644531 7.390625 3.6875 C 7.703125 3.738281 8.050781 3.710938 8.4375 3.609375 C 8.820312 3.503906 9.222656 3.335938 9.640625 3.109375 C 10.066406 2.890625 10.476562 2.648438 10.875 2.390625 Z M 2.75 9.953125 C 2.96875 9.804688 3.09375 9.601562 3.125 9.34375 C 3.15625 9.082031 3.117188 8.785156 3.015625 8.453125 C 2.921875 8.128906 2.78125 7.773438 2.59375 7.390625 C 2.414062 7.003906 2.21875 6.625 2 6.25 C 1.789062 5.875 1.582031 5.507812 1.375 5.15625 C 1.164062 4.800781 1 4.484375 0.875 4.203125 C 0.6875 4.140625 0.488281 4.078125 0.28125 4.015625 C 0.0703125 3.960938 -0.125 3.925781 -0.3125 3.90625 C -0.507812 3.894531 -0.703125 3.910156 -0.890625 3.953125 C -1.085938 3.992188 -1.257812 4.0625 -1.40625 4.15625 C -1.664062 4.332031 -1.832031 4.550781 -1.90625 4.8125 C -1.976562 5.070312 -1.984375 5.359375 -1.921875 5.671875 C -1.859375 5.992188 -1.734375 6.335938 -1.546875 6.703125 C -1.367188 7.066406 -1.15625 7.4375 -0.90625 7.8125 C -0.582031 8.300781 -0.25 8.71875 0.09375 9.0625 C 0.4375 9.414062 0.769531 9.675781 1.09375 9.84375 C 1.414062 10.007812 1.71875 10.101562 2 10.125 C 2.28125 10.144531 2.53125 10.085938 2.75 9.953125 Z M 2.75 9.953125 "/></g></g></g><g fill="#ffffff" fill-opacity="1"><g transform="translate(238.439199, 330.700059)"><g/></g></g><g fill="#ffffff" fill-opacity="1"><g transform="translate(240.757678, 334.170645)"><g><path d="M 11.390625 -1.265625 C 11.953125 -1.285156 12.488281 -1.265625 13 -1.203125 C 13.21875 -1.171875 13.4375 -1.125 13.65625 -1.0625 C 13.882812 -1.007812 14.101562 -0.941406 14.3125 -0.859375 C 14.519531 -0.785156 14.707031 -0.6875 14.875 -0.5625 C 15.039062 -0.445312 15.175781 -0.3125 15.28125 -0.15625 C 15.519531 0.1875 15.601562 0.523438 15.53125 0.859375 C 15.46875 1.203125 15.25 1.503906 14.875 1.765625 C 14.65625 1.921875 14.425781 2.050781 14.1875 2.15625 C 13.957031 2.257812 13.648438 2.363281 13.265625 2.46875 L 13.078125 2.1875 C 13.265625 2 13.375 1.785156 13.40625 1.546875 C 13.445312 1.304688 13.367188 1.046875 13.171875 0.765625 C 13.023438 0.554688 12.84375 0.378906 12.625 0.234375 C 12.414062 0.0859375 12.1875 -0.0390625 11.9375 -0.15625 C 11.6875 -0.269531 11.429688 -0.363281 11.171875 -0.4375 C 10.921875 -0.519531 10.691406 -0.585938 10.484375 -0.640625 L 3.96875 3.859375 C 3.882812 3.910156 3.769531 3.96875 3.625 4.03125 C 3.488281 4.09375 3.328125 4.101562 3.140625 4.0625 C 2.960938 4.03125 2.765625 3.9375 2.546875 3.78125 C 2.328125 3.632812 2.09375 3.382812 1.84375 3.03125 C 1.601562 2.675781 1.453125 2.367188 1.390625 2.109375 C 1.335938 1.847656 1.332031 1.625 1.375 1.4375 C 1.414062 1.25 1.488281 1.097656 1.59375 0.984375 C 1.695312 0.878906 1.785156 0.800781 1.859375 0.75 L 9.609375 -4.59375 C 9.804688 -4.726562 9.945312 -4.890625 10.03125 -5.078125 C 10.113281 -5.273438 10.082031 -5.484375 9.9375 -5.703125 C 9.851562 -5.816406 9.757812 -5.894531 9.65625 -5.9375 C 9.550781 -5.988281 9.4375 -6.039062 9.3125 -6.09375 L 9.421875 -6.453125 C 9.648438 -6.398438 9.890625 -6.316406 10.140625 -6.203125 C 10.398438 -6.097656 10.65625 -5.96875 10.90625 -5.8125 C 11.15625 -5.664062 11.394531 -5.484375 11.625 -5.265625 C 11.851562 -5.054688 12.066406 -4.8125 12.265625 -4.53125 C 12.460938 -4.25 12.59375 -3.976562 12.65625 -3.71875 C 12.726562 -3.457031 12.75 -3.21875 12.71875 -3 C 12.6875 -2.78125 12.613281 -2.582031 12.5 -2.40625 C 12.394531 -2.226562 12.273438 -2.066406 12.140625 -1.921875 C 12.015625 -1.773438 11.878906 -1.644531 11.734375 -1.53125 C 11.597656 -1.425781 11.484375 -1.335938 11.390625 -1.265625 Z M 11.390625 -1.265625 "/></g></g></g><g fill="#ffffff" fill-opacity="1"><g transform="translate(245.573104, 341.13831)"><g/></g></g><g fill="#ffffff" fill-opacity="1"><g transform="translate(247.967465, 344.584624)"><g><path d="M 5.5 -3.0625 C 6.351562 -3.6875 7.195312 -4.109375 8.03125 -4.328125 C 8.863281 -4.554688 9.644531 -4.617188 10.375 -4.515625 C 11.113281 -4.410156 11.796875 -4.160156 12.421875 -3.765625 C 13.046875 -3.378906 13.570312 -2.882812 14 -2.28125 C 14.445312 -1.675781 14.769531 -1.019531 14.96875 -0.3125 C 15.164062 0.394531 15.210938 1.101562 15.109375 1.8125 C 15.003906 2.53125 14.722656 3.242188 14.265625 3.953125 C 13.804688 4.671875 13.140625 5.34375 12.265625 5.96875 C 11.410156 6.59375 10.5625 7.019531 9.71875 7.25 C 8.875 7.488281 8.070312 7.566406 7.3125 7.484375 C 6.550781 7.398438 5.847656 7.164062 5.203125 6.78125 C 4.566406 6.394531 4.023438 5.898438 3.578125 5.296875 C 3.148438 4.691406 2.84375 4.03125 2.65625 3.3125 C 2.476562 2.59375 2.457031 1.867188 2.59375 1.140625 C 2.726562 0.410156 3.03125 -0.3125 3.5 -1.03125 C 3.96875 -1.757812 4.632812 -2.4375 5.5 -3.0625 Z M 10 2.921875 C 10.519531 2.546875 11.015625 2.160156 11.484375 1.765625 C 11.960938 1.378906 12.351562 0.992188 12.65625 0.609375 C 12.957031 0.222656 13.144531 -0.148438 13.21875 -0.515625 C 13.300781 -0.878906 13.222656 -1.222656 12.984375 -1.546875 C 12.753906 -1.867188 12.445312 -2.039062 12.0625 -2.0625 C 11.675781 -2.082031 11.25 -2.003906 10.78125 -1.828125 C 10.320312 -1.648438 9.832031 -1.394531 9.3125 -1.0625 C 8.789062 -0.738281 8.265625 -0.382812 7.734375 0 C 7.203125 0.375 6.695312 0.765625 6.21875 1.171875 C 5.738281 1.578125 5.335938 1.972656 5.015625 2.359375 C 4.691406 2.753906 4.484375 3.140625 4.390625 3.515625 C 4.296875 3.890625 4.363281 4.238281 4.59375 4.5625 C 4.832031 4.882812 5.148438 5.050781 5.546875 5.0625 C 5.953125 5.070312 6.394531 4.984375 6.875 4.796875 C 7.351562 4.617188 7.859375 4.359375 8.390625 4.015625 C 8.929688 3.671875 9.46875 3.304688 10 2.921875 Z M 10 2.921875 "/></g></g></g></svg>